<?xml version="1.0" encoding="UTF-8"?>
<svg version="1.1" viewBox="0 0 2048 745" width="1280" height="1280" xmlns="http://www.w3.org/2000/svg">
<path transform="translate(0)" d="m0 0h2048v745h-2048z" fill="#FDFEFD"/>
<path transform="translate(874,116)" d="m0 0h43l39 3 29 4 39 8 33 9 40 13 37 14 26 11 24 11 28 14 22 13 16 11 9 7-2 1-37-14-36-12-34-10-38-10-46-10-40-7-44-6-46-4-20-1h-54l-33 2-35 4-35 6-30 7-30 9-25 9-27 12-23 12-21 14 5 4 16 9 19 9 24 9 31 10 52 13 45 9 48 8 58 8 64 7 71 6 32 2-4 2-28 2-22 1h-97l-59-3-49-4-54-6-49-7-43-8-36-8-31-9-26-8-22-5-28-4-12-1h-48l-30 3-24 4-26 6-2 2 1 4v16l-4 16-7 16-8 14-2 3h95l20-8 21-7 26-6 23-3h20l9 1v1l-24 4-20 6-18 8-16 10-10 8-10 9-7 7-10 13-8 13-8 16-7 21-3 14-2 24h-107l-7-21-5-22-3-26v-16l2-18 4-15 6-15 12-20 5-15 2-18-2-17-5-16-8-17 1-7 5-5 2-1h107l39-3 28-4 24-5 24-7 24-9 32-16 23-13 24-13 23-11 29-11 26-8 38-9 33-6 29-4z" fill="#231F20"/>
<path transform="translate(1527,371)" d="m0 0h13l21 3 18 6 17 9 12 9 12 11 10 13 8 14 6 14 4 16 1 6v30l-3 15-5 15-8 16-8 11-9 10-8 8-13 9-17 9-20 6-12 2h-25l-20-4-16-6-15-8-13-10-14-14-9-13-8-16-5-14-3-15-1-10v-12l3-21 6-18 10-19 11-14 10-10 15-11 16-8 18-6z" fill="#231F20"/>
<path transform="translate(576,371)" d="m0 0h13l21 3 18 6 19 10 10 8 10 9 10 12 8 13 7 15 5 18 2 20-1 18-4 18-6 16-8 14-10 13-13 13-13 9-17 9-15 5-17 3h-25l-20-4-16-6-15-8-13-10-13-13-10-14-8-16-6-18-2-11-1-17 2-21 5-18 9-19 10-14 11-12 11-9 13-8 15-7 13-4z" fill="#231F20"/>
<path transform="translate(1387,259)" d="m0 0h65l56 2 38 3 33 5 20 5 21 7 19 9 16 10 12 9 14 12 21 21 11 16 11 21 6 16 6 23 4 28 1 15v22l-1 15-1 5h-1l-5-27-7-26-8-22-12-25-12-19-11-13-7-8-13-12-16-11-21-11-25-9-28-7-30-5-34-3h-58l-17 1h-36l-81-1-364-1-45-2-50-4-48-6-41-7-39-9-30-9-11-4v-1l11 1 31 4 36 3 37 2 29 1 59 1h35l70-1 75-2 100-4 123-6z" fill="#231F20"/>
<path transform="translate(1467,335)" d="m0 0h28l14 2v2l-22 4-21 7-19 10-14 11-12 12-10 14-11 21-8 24-4 20-2 19-1 25h-650v-35l-3-18-6-20-8-18-10-16-8-10-9-10-7-7-13-10-8-5-3-5 11 1 17 5 16 8 11 7 11 9 17 17 10 13 11 17 11 20 8 19 1 3 549 1 4-16 7-20 9-20 8-14 10-14 12-14 11-10 13-9 12-7 21-8 18-4z" fill="#231F20"/>
</svg>
