<?xml version="1.0" encoding="UTF-8"?>
<svg version="1.1" viewBox="0 0 2048 1638" width="1280" height="1280" xmlns="http://www.w3.org/2000/svg">
<path transform="translate(0)" d="m0 0h2048v1638h-2048z" fill="#FDFFFF"/>
<path transform="translate(877,575)" d="m0 0h38l31 2 32 4 32 6 40 10 38 12 38 14 34 14 26 12 24 12 27 16 14 10 9 7-2 1-28-11-47-16-49-14-41-10-50-10-47-7-38-4-28-2-23-1h-34l-40 2-37 4-35 6-31 7-30 9-25 9-25 11-20 10-18 11-8 6-1 2 5 2 14 8 16 8 28 11 28 9 38 10 41 9 43 8 60 9 58 7 61 6 53 4 16 1 5 1v1l-43 3-31 1h-55l-57-2-57-4-59-6-51-7-46-8-40-9-26-7-28-9-25-6-25-4-25-2h-33l-27 2-33 5-26 6h-4l1 6v17l-5 19-8 17-9 14 94-1 28-11 24-7 24-5 23-2 21 1v2l-21 3-21 6-20 9-17 11-11 9-9 8-7 8-11 15-9 16-6 14-5 16-3 15-2 23h-106l-4-9-7-24-4-24-1-11v-20l3-21 6-18 8-15 7-12 5-15 1-5v-24l-4-16-7-16-3-6 1-8 5-5 2-1h15l39 1h24l33-1 37-3 33-5 25-6 20-6 24-10 19-9 23-13 24-13 19-10 28-12 33-11 36-9 36-7 27-4 31-3z" fill="#231F21"/>
<path transform="translate(568,831)" d="m0 0h29l16 3 19 7 16 9 11 9 8 7 9 11 9 14 7 15 5 18 2 17v12l-3 21-6 18-8 16-9 12-9 10-10 9-15 10-18 8-21 5-8 1h-19l-18-3-16-5-16-8-13-9-12-11-8-9-9-14-7-14-5-16-2-11-1-11v-11l2-17 5-18 8-17 8-12 9-10 5-5 10-9 14-9 16-7 18-5z" fill="#231F21"/>
<path transform="translate(1519,831)" d="m0 0h29l15 3 18 6 18 10 11 9 14 14 9 13 8 16 6 18 2 11 1 19-2 19-5 18-9 19-9 13-12 13-12 10-15 9-17 7-18 4-8 1h-19l-19-3-15-5-16-8-12-8-12-11-10-11-11-18-6-15-4-14-2-15v-16l3-20 6-18 9-17 9-12 10-11 14-11 16-9 19-7z" fill="#231F21"/>
<path transform="translate(1400,718)" d="m0 0h40l41 1 40 2 32 3 29 5 23 6 21 8 21 11 16 11 11 9 12 11 14 14 12 16 12 23 7 20 5 19 4 27 1 15v26l-1 14-1 5h-1l-5-28-6-23-8-23-10-22-12-20-10-13-9-10-12-12-15-11-16-9-15-7-24-8-25-6-32-5-21-2-18-1h-40l-18 1h-72l-103-1h-290l-38-1-52-3-51-5-41-6-32-6-31-7-27-8-17-6 4-1 37 5 51 4 46 2 52 1h65l64-1 99-3 112-5 80-4z" fill="#231F21"/>
<path transform="translate(1470,794)" d="m0 0h22l19 3v1l-26 5-15 5-17 8-12 8-13 11-9 10-10 15-8 16-6 16-5 19-3 19-1 13v22l-1 1h-650v-34l-3-19-5-17-6-15-8-15-10-14-9-10-5-6-11-9-12-9-7-6v-1l11 1 15 4 21 10 14 10 13 12 9 9 10 13 10 15 9 16 10 21 3 10h549l2-10 9-27 8-18 11-19 13-17 16-16 15-11 17-9 21-7 15-3z" fill="#231F21"/>
</svg>
